<svg width="26" height="30" viewBox="0 0 26 30" fill="none" xmlns="http://www.w3.org/2000/svg">
<path d="M4.67708 15.0901C5.78681 14.547 6.93808 14.14 8.13092 13.8689C9.32375 13.5979 10.5336 13.4619 11.7604 13.4609C12.4688 13.4609 13.1714 13.5082 13.8684 13.6026C14.5654 13.6971 15.2558 13.8387 15.9396 14.0276C17.1201 14.3582 18.0235 14.5825 18.6497 14.7005C19.2758 14.8186 19.9426 14.8776 20.65 14.8776H21.3229L22.5625 3.54427H3.4375L4.67708 15.0901ZM5.88125 29.0443C5.14931 29.0443 4.51747 28.8082 3.98575 28.3359C3.45403 27.8637 3.15322 27.2616 3.08333 26.5297L0.25 0.710938H25.75L22.9167 26.5297C22.8458 27.2616 22.5446 27.8637 22.0128 28.3359C21.4811 28.8082 20.8497 29.0443 20.1187 29.0443H5.88125Z" fill="#297DA9"/>
</svg>
