<svg width="32" height="28" viewBox="0 0 32 28" fill="none" xmlns="http://www.w3.org/2000/svg">
<path d="M24.5682 20.4729C23.246 19.2215 22.1953 17.7458 21.4161 16.0458C20.637 14.3458 20.2474 12.5396 20.2474 10.6271C20.2474 8.71458 20.637 6.90833 21.4161 5.20833C22.1953 3.50833 23.246 2.03264 24.5682 0.78125L26.7641 3.04792C25.7252 4.01597 24.9106 5.14931 24.3203 6.44792C23.73 7.74653 23.4349 9.13958 23.4349 10.6271C23.4349 12.1146 23.73 13.5194 24.3203 14.8417C24.9106 16.1639 25.7252 17.309 26.7641 18.2771L24.5682 20.4729ZM29.1016 15.9396C28.346 15.2549 27.7557 14.4582 27.3307 13.5497C26.9057 12.6411 26.6932 11.6669 26.6932 10.6271C26.6932 9.58725 26.9057 8.61353 27.3307 7.70592C27.7557 6.79831 28.346 6.00119 29.1016 5.31458L31.3682 7.58125C30.9432 7.98264 30.6009 8.43739 30.3411 8.9455C30.0814 9.45361 29.9516 10.0141 29.9516 10.6271C29.9516 11.24 30.0814 11.801 30.3411 12.3101C30.6009 12.8191 30.9432 13.2734 31.3682 13.6729L29.1016 15.9396ZM11.7474 16.2937C10.1891 16.2937 8.85504 15.7389 7.74531 14.6292C6.63559 13.5194 6.08073 12.1854 6.08073 10.6271C6.08073 9.06875 6.63559 7.73472 7.74531 6.625C8.85504 5.51528 10.1891 4.96042 11.7474 4.96042C13.3057 4.96042 14.6398 5.51528 15.7495 6.625C16.8592 7.73472 17.4141 9.06875 17.4141 10.6271C17.4141 12.1854 16.8592 13.5194 15.7495 14.6292C14.6398 15.7389 13.3057 16.2937 11.7474 16.2937ZM0.414062 27.6271V23.6604C0.414062 22.8813 0.614757 22.1493 1.01615 21.4646C1.41753 20.7799 1.9724 20.2604 2.68073 19.9062C3.8849 19.2924 5.24253 18.7729 6.75365 18.3479C8.26476 17.9229 9.92934 17.7104 11.7474 17.7104C13.5655 17.7104 15.23 17.9229 16.7411 18.3479C18.2523 18.7729 19.6099 19.2924 20.8141 19.9062C21.5224 20.2604 22.0773 20.7799 22.4786 21.4646C22.88 22.1493 23.0807 22.8813 23.0807 23.6604V27.6271H0.414062Z" fill="#297DA9"/>
</svg>
