<svg width="32" height="32" viewBox="0 0 32 32" fill="none" xmlns="http://www.w3.org/2000/svg">
<path d="M0.414062 20.1224C0.414062 17.5488 1.48837 15.489 3.63698 13.9429C5.78559 12.3968 8.25295 11.6233 11.0391 11.6224C13.8252 11.6215 16.2925 12.395 18.4411 13.9429C20.5898 15.4908 21.6641 17.5507 21.6641 20.1224H0.414062ZM0.414062 25.7891V22.9557H21.6641V25.7891H0.414062ZM1.83073 31.4557C1.42934 31.4557 1.09312 31.3197 0.822062 31.0477C0.551007 30.7757 0.415007 30.4395 0.414062 30.0391V28.6224H21.6641V30.0391C21.6641 30.4405 21.5281 30.7771 21.2561 31.0491C20.9841 31.3211 20.6478 31.4567 20.2474 31.4557H1.83073ZM24.4974 31.4557V20.1224C24.4974 17.4307 23.5766 15.105 21.7349 13.1453C19.8932 11.1856 17.6384 9.87517 14.9703 9.21406L14.5807 5.95573H21.6641V0.289062H24.4974V5.95573H31.5807L29.2786 28.9057C29.2078 29.6377 28.9065 30.2459 28.3748 30.7304C27.8431 31.2149 27.2117 31.4567 26.4807 31.4557H24.4974Z" fill="#297DA9"/>
</svg>
