<svg width="33" height="70" viewBox="0 0 33 70" fill="none" xmlns="http://www.w3.org/2000/svg">
<path d="M20.7031 69.1278C20.7031 69.1278 20.8931 69.1678 21.2431 69.2478C21.5931 69.3078 22.0931 69.3878 22.6731 69.4578C23.2631 69.5278 23.9531 69.5678 24.6931 69.5778C25.4331 69.5578 26.2031 69.5478 26.9731 69.4278C27.7331 69.3378 28.4931 69.1478 29.1831 68.9478C29.8731 68.7278 30.4931 68.4478 31.0031 68.1578C32.0331 67.5078 32.6031 66.7878 32.4631 66.0078C30.5831 66.1578 28.9731 66.3578 27.5531 66.6478C27.2031 66.7178 26.8531 66.7978 26.5231 66.8778C26.1931 66.9478 25.8731 67.0278 25.5731 67.1078C24.9631 67.2878 24.4031 67.4378 23.8931 67.6278C23.3831 67.8178 22.9331 67.9878 22.5431 68.1578C22.1531 68.3278 21.8131 68.4978 21.5331 68.6378C20.9931 68.9178 20.7031 69.1178 20.7031 69.1178V69.1278Z" fill="#297DA9"/>
<path d="M14.25 64.9469C14.25 64.9469 14.42 65.0369 14.73 65.1869C15.04 65.3269 15.47 65.5369 16.01 65.7469C16.55 65.9369 17.16 66.1869 17.85 66.3569C18.19 66.4469 18.54 66.5369 18.89 66.6169C19.25 66.6869 19.61 66.7469 19.98 66.8069C20.34 66.8669 20.7 66.8969 21.06 66.9169C21.42 66.9369 21.77 66.9469 22.1 66.9369C22.78 66.8969 23.4 66.8369 23.94 66.6769C24.48 66.5169 24.91 66.3069 25.22 66.0469C25.53 65.7869 25.7 65.4569 25.72 65.0769C23.96 64.7069 22.43 64.4769 21.05 64.3769C20.37 64.3169 19.72 64.3069 19.13 64.2969C18.83 64.2969 18.55 64.2969 18.27 64.3169C17.99 64.3269 17.74 64.3369 17.49 64.3569C16.48 64.4369 15.68 64.5669 15.12 64.6969C14.56 64.8269 14.26 64.9469 14.26 64.9469H14.25Z" fill="#297DA9"/>
<path d="M8.81469 59.2175C8.81469 59.2175 8.95469 59.3375 9.21469 59.5475C9.46469 59.7575 9.82469 60.0575 10.2847 60.3675C10.7347 60.6875 11.2647 61.0575 11.8547 61.3875C12.4347 61.7375 13.0747 62.0575 13.7247 62.3375C14.0447 62.4875 14.3747 62.5975 14.6947 62.7075C15.0247 62.8175 15.3347 62.9275 15.6447 62.9975C16.2847 63.1375 16.8547 63.2475 17.3847 63.2375C17.9047 63.2375 18.3547 63.1575 18.6847 62.9975C19.0247 62.8375 19.2447 62.5775 19.3347 62.2375C17.7847 61.4275 16.4147 60.8075 15.1647 60.3675C13.9347 59.9075 12.8247 59.6275 11.8847 59.4375C11.4147 59.3475 10.9947 59.2775 10.6147 59.2475C10.2347 59.2075 9.91469 59.1775 9.64469 59.1775C9.10469 59.1575 8.80469 59.1975 8.80469 59.1975L8.81469 59.2175Z" fill="#297DA9"/>
<path d="M4.66406 52.2812C4.66406 52.2812 4.77406 52.4312 4.96406 52.6812C5.15406 52.9412 5.44406 53.2912 5.80406 53.7012C5.98406 53.9012 6.16406 54.1312 6.38406 54.3512C6.59406 54.5712 6.82406 54.7912 7.06406 55.0312C7.52406 55.5013 8.06406 55.9413 8.59406 56.3713C9.14406 56.7913 9.69406 57.1612 10.2341 57.4712C10.7841 57.7612 11.3041 58.0113 11.7841 58.1413C12.7441 58.4013 13.4741 58.3312 13.7741 57.7412C12.5041 56.5812 11.3741 55.6612 10.3041 54.9412C9.79406 54.5612 9.27406 54.2613 8.80406 53.9813C8.33406 53.7013 7.88406 53.4612 7.46406 53.2712C6.65406 52.8612 5.93406 52.6212 5.44406 52.4712C4.95406 52.3212 4.67406 52.2912 4.67406 52.2912L4.66406 52.2812Z" fill="#297DA9"/>
<path d="M1.98438 44.4766C1.98438 44.4766 2.00437 44.5166 2.03437 44.5966C2.06437 44.6666 2.11437 44.7866 2.18437 44.9266C2.32437 45.2066 2.52437 45.5966 2.76437 46.0666C3.00437 46.5366 3.32437 47.0466 3.66437 47.5866C4.00437 48.1266 4.41437 48.6766 4.81437 49.2066C5.24437 49.7166 5.67437 50.2166 6.11437 50.6366C6.56437 51.0466 6.99437 51.4066 7.40437 51.6566C8.23437 52.1466 8.91438 52.2666 9.30438 51.8066C8.37438 50.4166 7.50437 49.2766 6.66437 48.3366C6.25437 47.8666 5.85437 47.4466 5.46438 47.0666C5.08437 46.6866 4.72437 46.3566 4.37437 46.0766C3.68437 45.5066 3.10437 45.0966 2.67437 44.8466C2.45437 44.7166 2.28437 44.6266 2.17437 44.5666C2.05437 44.5066 1.99437 44.4866 1.99437 44.4866L1.98438 44.4766Z" fill="#297DA9"/>
<path d="M0.91625 36.2266C0.91625 36.2266 0.95625 36.3866 1.02625 36.6766C1.09625 36.9666 1.18625 37.3666 1.33625 37.8466C1.48625 38.3266 1.65625 38.8866 1.86625 39.4566C2.09625 40.0366 2.32625 40.6366 2.61625 41.2166C3.17625 42.3766 3.84625 43.4366 4.49625 44.1066C5.15625 44.7766 5.75625 45.0566 6.19625 44.7466C6.05625 44.3666 5.91625 44.0066 5.76625 43.6566C5.61625 43.3066 5.48625 42.9666 5.33625 42.6566C5.03625 42.0166 4.76625 41.4266 4.46625 40.8966C3.89625 39.8266 3.30625 38.9566 2.79625 38.2566C2.53625 37.9166 2.28625 37.6066 2.05625 37.3566C1.83625 37.0966 1.63625 36.8866 1.46625 36.7166C1.12625 36.3766 0.90625 36.2266 0.90625 36.2266H0.91625Z" fill="#297DA9"/>
<path d="M1.46875 27.9922C1.46875 27.9922 1.46875 28.1522 1.47875 28.4322C1.49875 28.7122 1.51875 29.1022 1.55875 29.5822C1.58875 30.0522 1.65875 30.6022 1.74875 31.1722C1.78875 31.4622 1.83875 31.7522 1.89875 32.0522C1.95875 32.3522 2.02875 32.6522 2.09875 32.9522C2.16875 33.2522 2.24875 33.5422 2.32875 33.8222C2.41875 34.1122 2.51875 34.3922 2.61875 34.6522C2.81875 35.1822 3.01875 35.6622 3.25875 36.0422C3.72875 36.8222 4.20875 37.2422 4.67875 37.0722C4.24875 34.0122 3.52875 31.8322 2.81875 30.3022C2.48875 29.5422 2.14875 28.9622 1.88875 28.5722C1.75875 28.3822 1.65875 28.2322 1.58875 28.1422C1.51875 28.0422 1.47875 28.0022 1.47875 28.0022L1.46875 27.9922Z" fill="#297DA9"/>
<path d="M3.6 20.1406C3.6 20.1406 3.5 20.7206 3.39 21.5906C3.35 22.0306 3.31 22.5406 3.27 23.0806C3.24 23.6206 3.25 24.2006 3.26 24.7706C3.31 25.9206 3.45 27.0506 3.73 27.8706C3.86 28.2806 4.02 28.6106 4.2 28.8406C4.39 29.0706 4.59 29.1806 4.82 29.1706C4.87 28.4506 4.89 27.7706 4.89 27.1406C4.9 26.5106 4.86 25.9206 4.83 25.3706C4.8 24.8306 4.74 24.3206 4.66 23.8506C4.6 23.3806 4.52 22.9506 4.43 22.5706C4.24 21.7906 4.06 21.1906 3.9 20.7806C3.74 20.3706 3.62 20.1506 3.62 20.1506L3.6 20.1406Z" fill="#297DA9"/>
<path d="M7.19774 13.1016C7.19774 13.1016 7.14774 13.2216 7.06774 13.4416C6.98774 13.6516 6.86774 13.9616 6.74774 14.3516C6.62774 14.7316 6.48774 15.1716 6.36774 15.6516C6.24774 16.1316 6.13774 16.6516 6.03774 17.1716C5.94774 17.6916 5.88774 18.2216 5.85774 18.7116C5.81774 19.2016 5.83774 19.6716 5.87774 20.0716C5.94774 20.8716 6.19774 21.4316 6.60774 21.5216C7.33774 18.9716 7.52774 16.9616 7.49774 15.4716C7.48774 14.7316 7.40774 14.1316 7.34774 13.7316C7.27774 13.3216 7.20774 13.1016 7.20774 13.1016H7.19774Z" fill="#297DA9"/>
<path d="M12.0134 7.22656C12.0134 7.22656 11.9534 7.32656 11.8334 7.49656C11.7234 7.67656 11.5734 7.92656 11.3934 8.23656C11.0334 8.84656 10.6134 9.70656 10.2434 10.5766C10.0734 11.0166 9.92337 11.4766 9.79337 11.9066C9.66337 12.3266 9.59337 12.7566 9.55337 13.1266C9.46337 13.8666 9.57337 14.4266 9.92337 14.6066C11.0734 12.5166 11.6134 10.7666 11.8534 9.41656C11.9734 8.75656 12.0134 8.20656 12.0234 7.81656C12.0334 7.43656 12.0234 7.22656 12.0234 7.22656H12.0134Z" fill="#297DA9"/>
<path d="M17.823 2.78906C17.823 2.78906 17.523 3.07906 17.093 3.53906C16.883 3.75906 16.633 4.03906 16.393 4.34906C16.153 4.65906 15.883 4.97906 15.653 5.33906C15.423 5.69906 15.203 6.05906 15.013 6.40906C14.823 6.75906 14.673 7.11906 14.573 7.42906C14.363 8.06906 14.343 8.57906 14.623 8.83906C16.043 7.26906 16.853 5.85906 17.293 4.69906C17.753 3.58906 17.823 2.78906 17.823 2.78906Z" fill="#297DA9"/>
<path d="M24.3184 0.01C24.3184 0.01 23.9984 0.19 23.5484 0.48C23.0984 0.8 22.4984 1.22 21.9584 1.73C21.6884 1.98 21.4284 2.25 21.1984 2.5C20.9684 2.76 20.7684 3.04 20.6184 3.29C20.3184 3.8 20.1984 4.25 20.3884 4.54C20.7784 4.29 21.1284 4.04 21.4484 3.77C21.7684 3.52 22.0584 3.27 22.3084 3.01C22.5584 2.75 22.7884 2.5 22.9884 2.26C23.1884 2.02 23.3584 1.78 23.5084 1.56C23.7984 1.1 24.0084 0.74 24.1384 0.45C24.2684 0.17 24.3184 0 24.3184 0V0.01Z" fill="#297DA9"/>
<path d="M24.5078 57.7422C24.5078 57.7422 24.6178 57.8322 24.8178 58.0122C25.0178 58.1722 25.2978 58.3922 25.6478 58.6922C25.9978 58.9722 26.4178 59.2822 26.8678 59.6422C27.3178 59.9722 27.8178 60.3522 28.3278 60.7022C28.8378 61.0822 29.3578 61.4222 29.8578 61.8022C30.3578 62.1622 30.8278 62.5222 31.2378 62.8922C32.0478 63.5922 32.6078 64.3422 32.4778 65.1122C30.6478 64.9622 29.1578 64.3122 28.0378 63.5322C27.7578 63.3322 27.4978 63.1322 27.2578 62.9222C27.0178 62.7022 26.7978 62.4822 26.5978 62.2622C26.1978 61.8322 25.8778 61.3522 25.6178 60.9222C25.3578 60.5022 25.1678 60.0622 25.0178 59.6822C24.8678 59.3022 24.7678 58.9622 24.6878 58.6822C24.5478 58.1022 24.5178 57.7522 24.5178 57.7522L24.5078 57.7422Z" fill="#297DA9"/>
<path d="M19.9318 55.2578C19.9318 55.2578 20.2818 55.7078 20.8218 56.4178C21.1018 56.7478 21.4118 57.1878 21.7818 57.6078C21.9618 57.8278 22.1418 58.0478 22.3418 58.2878C22.5418 58.5078 22.7418 58.7378 22.9418 58.9778C23.1418 59.2278 23.3418 59.4478 23.5518 59.6878C23.7518 59.9278 23.9518 60.1678 24.1518 60.4078C24.5518 60.8578 24.9118 61.3378 25.2118 61.7678C25.5218 62.2078 25.7618 62.6278 25.8918 63.0378C26.0218 63.4378 26.0518 63.8078 25.9118 64.1578C24.2518 63.5278 23.0018 62.5378 22.1118 61.5278C21.6718 61.0078 21.3018 60.4978 21.0218 59.9678C20.8818 59.7078 20.7518 59.4578 20.6418 59.2178C20.5318 58.9678 20.4418 58.7178 20.3618 58.4878C20.0418 57.5478 19.9418 56.7278 19.9118 56.1678C19.8818 55.5978 19.9118 55.2678 19.9118 55.2678L19.9318 55.2578Z" fill="#297DA9"/>
<path d="M15.9241 51.5859C15.9241 51.5859 15.9841 51.7159 16.0941 51.9359C16.2041 52.1659 16.3441 52.5059 16.5441 52.8859C16.7341 53.2759 16.9541 53.7459 17.2141 54.2359C17.4641 54.7459 17.7441 55.2659 18.0241 55.8159C18.1541 56.0959 18.3141 56.3559 18.4541 56.6259C18.5941 56.8959 18.7341 57.1659 18.8741 57.4459C19.1541 57.9659 19.3841 58.5159 19.5841 58.9959C19.7841 59.4759 19.9241 59.9359 19.9641 60.3459C20.0041 60.7559 19.9641 61.0959 19.7641 61.3759C18.3641 60.3559 17.4041 59.1159 16.7741 57.9559C16.1541 56.7659 15.8541 55.6459 15.7341 54.6959C15.6741 54.2159 15.6641 53.7859 15.6641 53.4059C15.6641 53.0259 15.7141 52.6959 15.7441 52.4259C15.8241 51.8859 15.9241 51.5959 15.9241 51.5959V51.5859Z" fill="#297DA9"/>
<path d="M12.7071 46.9319C12.7071 46.9319 12.7371 47.0719 12.7971 47.3119C12.8471 47.5619 12.9371 47.8919 13.0371 48.3019C13.0871 48.5119 13.1371 48.7419 13.2071 48.9719C13.2671 49.2019 13.3371 49.4619 13.4071 49.7219C13.5371 50.2619 13.7171 50.8019 13.8571 51.3819C14.0171 51.9519 14.1871 52.5419 14.3271 53.1119C14.4871 53.6619 14.5971 54.2319 14.6871 54.7219C14.8671 55.7119 14.8371 56.5619 14.3771 56.9619C13.2971 55.6519 12.6571 54.2619 12.2971 53.0319C12.1371 52.4019 12.0171 51.8219 11.9671 51.2719C11.9271 50.7119 11.9171 50.2119 11.9471 49.7619C12.0371 48.8419 12.1971 48.1519 12.3771 47.6619C12.5471 47.1819 12.6971 46.9219 12.6971 46.9219L12.7071 46.9319Z" fill="#297DA9"/>
<path d="M10.443 41.5178C10.443 41.5178 10.443 41.5578 10.443 41.6178C10.443 41.6778 10.443 41.7778 10.453 41.8878C10.463 42.1278 10.483 42.4578 10.493 42.8678C10.493 43.2778 10.553 43.7478 10.563 44.2778C10.593 44.7978 10.643 45.3478 10.663 45.9278C10.713 46.4878 10.743 47.0778 10.773 47.6378C10.813 48.1878 10.813 48.7278 10.793 49.2078C10.763 50.1678 10.573 50.9378 10.073 51.1778C9.34295 49.6978 9.02295 48.2578 8.93295 47.0378C8.89295 46.4178 8.92295 45.8478 8.96295 45.3378C9.03295 44.8178 9.12295 44.3478 9.23295 43.9378C9.46295 43.1178 9.78295 42.5078 10.013 42.1078C10.133 41.9078 10.243 41.7578 10.313 41.6578C10.393 41.5578 10.433 41.5078 10.433 41.5078L10.443 41.5178Z" fill="#297DA9"/>
<path d="M9.31689 35.5959C9.31689 35.5959 9.23689 36.0859 9.11689 36.8559C9.05689 37.2359 8.98689 37.6859 8.91689 38.1759C8.86689 38.6559 8.77689 39.1959 8.70689 39.7159C8.55689 40.7859 8.40689 41.8859 8.17689 42.7559C7.95689 43.6259 7.63689 44.2759 7.12689 44.3659C7.03689 43.9759 6.96689 43.6059 6.91689 43.2359C6.85689 42.8759 6.83689 42.5159 6.81689 42.1759C6.76689 41.4959 6.81689 40.8559 6.89689 40.2859C7.05689 39.1359 7.38689 38.2259 7.76689 37.5259C7.95689 37.1759 8.13689 36.8859 8.31689 36.6359C8.50689 36.3859 8.67689 36.1859 8.82689 36.0359C9.12689 35.7259 9.32689 35.5859 9.32689 35.5859L9.31689 35.5959Z" fill="#297DA9"/>
<path d="M9.35531 29.4609C9.35531 29.4609 9.30531 29.5709 9.23531 29.7609C9.16531 29.9509 9.06531 30.2309 8.94531 30.5709C8.80531 30.9109 8.67531 31.3009 8.52531 31.7309C8.44531 31.9509 8.36531 32.1709 8.27531 32.4009C8.19531 32.6309 8.11531 32.8609 8.03531 33.1009C7.86531 33.5609 7.69531 34.0309 7.51531 34.5009C7.33531 34.9509 7.14531 35.3809 6.96531 35.7509C6.59531 36.4909 6.17531 36.9909 5.69531 36.9409C5.69531 36.1909 5.71531 35.5009 5.83531 34.8709C5.88531 34.5509 5.94531 34.2509 6.01531 33.9709C6.08531 33.6909 6.17531 33.4209 6.26531 33.1709C6.61531 32.1609 7.11531 31.4109 7.55531 30.8609C8.03531 30.3109 8.47531 29.9709 8.79531 29.7609C8.95531 29.6509 9.09531 29.5809 9.18531 29.5409C9.27531 29.5009 9.33531 29.4809 9.33531 29.4809L9.35531 29.4609Z" fill="#297DA9"/>
<path d="M10.5972 23.4631C10.5972 23.4631 10.3772 23.8331 10.0072 24.3731C9.83719 24.6531 9.63719 24.9831 9.40719 25.3331C9.17719 25.6831 8.95719 26.0731 8.70719 26.4531C8.22719 27.2231 7.71719 28.0131 7.24719 28.5831C7.00719 28.8731 6.76719 29.0931 6.52719 29.2331C6.29719 29.3731 6.07719 29.4231 5.86719 29.3331C5.99719 28.6531 6.17719 28.0431 6.38719 27.4931C6.61719 26.9531 6.84719 26.4731 7.10719 26.0631C7.37719 25.6531 7.64719 25.3031 7.90719 25.0131C8.18719 24.7231 8.46719 24.4831 8.71719 24.2931C9.22719 23.9031 9.71719 23.7031 10.0472 23.5931C10.3772 23.4731 10.5872 23.4531 10.5872 23.4531L10.5972 23.4631Z" fill="#297DA9"/>
<path d="M13.0072 17.8784C13.0072 17.8784 11.9472 18.9284 10.7372 20.1384C10.4472 20.4284 10.1572 20.7284 9.85719 20.9884C9.55719 21.2484 9.28719 21.5084 9.00719 21.6984C8.45719 22.0884 7.96719 22.2784 7.61719 22.0084C7.85719 21.4284 8.15719 20.9284 8.43719 20.4884C8.73719 20.0584 9.05719 19.6984 9.35719 19.3784C9.99719 18.7784 10.5972 18.3884 11.1572 18.1784C11.6972 17.9584 12.1572 17.8784 12.4872 17.8584C12.8172 17.8384 13.0072 17.8684 13.0072 17.8684V17.8784Z" fill="#297DA9"/>
<path d="M16.4716 13.0226C16.4716 13.0226 16.3916 13.0626 16.2616 13.1426C16.1316 13.2226 15.9416 13.3426 15.7116 13.4826C15.2416 13.7526 14.6516 14.1526 14.0016 14.5126C13.6916 14.7026 13.3716 14.8926 13.0516 15.0526C12.7316 15.2126 12.4416 15.3726 12.1516 15.4726C11.8716 15.5826 11.6016 15.6426 11.3816 15.6326C11.1616 15.6326 10.9816 15.5626 10.8516 15.3926C12.2016 13.5626 13.7116 12.9826 14.7516 12.8426C15.2816 12.7826 15.7116 12.8226 16.0016 12.8726C16.3016 12.9326 16.4716 13.0126 16.4716 13.0126V13.0226Z" fill="#297DA9"/>
<path d="M20.835 9.16171C20.835 9.16171 20.535 9.26171 20.075 9.40171C19.835 9.46171 19.575 9.55171 19.285 9.64171C18.995 9.73171 18.675 9.81171 18.355 9.91171C18.045 10.0117 17.715 10.0917 17.405 10.1617C17.085 10.2217 16.795 10.3017 16.525 10.3217C15.985 10.3617 15.545 10.2717 15.375 9.92171C16.915 8.64171 18.375 8.49171 19.325 8.61171C20.305 8.76171 20.835 9.17171 20.835 9.17171V9.16171Z" fill="#297DA9"/>
<path d="M25.8819 6.51938C25.8819 6.51938 25.5919 6.53938 25.1619 6.53938C24.9419 6.53938 24.6919 6.55938 24.4219 6.56938C24.1519 6.56938 23.8419 6.56938 23.5519 6.57938C23.2519 6.57938 22.9519 6.57938 22.6619 6.55938C22.3719 6.53938 22.1019 6.52937 21.8519 6.47937C21.3719 6.37937 21.0019 6.18938 20.9219 5.83938C21.3219 5.66938 21.7019 5.53937 22.0619 5.45937C22.4219 5.38937 22.7619 5.35938 23.0819 5.35938C23.3919 5.35938 23.6819 5.38937 23.9419 5.45937C24.2019 5.51937 24.4419 5.59938 24.6519 5.67938C25.0619 5.83938 25.3819 6.07937 25.5819 6.24937C25.7819 6.41937 25.8919 6.53938 25.8919 6.53938L25.8819 6.51938Z" fill="#297DA9"/>
<path d="M32.4866 2.13187C32.4866 2.13187 32.0766 2.07188 31.4166 1.99188C31.0866 1.94188 30.7066 1.94187 30.2766 1.92188C30.0566 1.92188 29.8366 1.92188 29.6066 1.92188C29.3766 1.93187 29.1366 1.95188 28.8966 1.97188C28.6566 1.99188 28.4066 2.01188 28.1666 2.04188C27.9266 2.08187 27.6766 2.12188 27.4266 2.17188C26.9366 2.25188 26.4566 2.40187 26.0166 2.55187C25.5666 2.69187 25.1666 2.90187 24.8166 3.10187C24.6366 3.20187 24.4866 3.31188 24.3366 3.42188C24.1966 3.53188 24.0766 3.66188 23.9766 3.78188C24.2866 3.82187 24.6466 3.82187 25.0366 3.78188C25.4266 3.73188 25.8466 3.64188 26.2966 3.56187C26.5166 3.52188 26.7466 3.46188 26.9766 3.40188C27.2066 3.35188 27.4366 3.29188 27.6666 3.24188C27.8966 3.18188 28.1366 3.12188 28.3666 3.05187C28.5966 3.00188 28.8266 2.94188 29.0566 2.89188C29.2866 2.83188 29.5066 2.77188 29.7266 2.72188C29.9466 2.68188 30.1566 2.63187 30.3566 2.58187C30.7666 2.49187 31.1366 2.39187 31.4466 2.34187C32.0766 2.22187 32.4766 2.12187 32.4766 2.12187L32.4866 2.13187Z" fill="#297DA9"/>
</svg>
