<svg width="33" height="70" viewBox="0 0 33 70" fill="none" xmlns="http://www.w3.org/2000/svg">
<path d="M12.2809 69.1278C12.2809 69.1278 12.0809 69.1678 11.7409 69.2478C11.3909 69.3078 10.9009 69.3878 10.3109 69.4578C9.72095 69.5278 9.02095 69.5678 8.29095 69.5778C7.55095 69.5578 6.78095 69.5478 6.01095 69.4278C5.25095 69.3378 4.49095 69.1478 3.80095 68.9478C3.11095 68.7278 2.49095 68.4478 1.98095 68.1578C0.950949 67.5078 0.38095 66.7878 0.52095 66.0078C2.40095 66.1578 4.01095 66.3578 5.43095 66.6478C5.78095 66.7178 6.13095 66.7978 6.46095 66.8778C6.79095 66.9478 7.10095 67.0278 7.41095 67.1078C8.02095 67.2878 8.58095 67.4378 9.09095 67.6278C9.60095 67.8178 10.0509 67.9878 10.4409 68.1578C10.8309 68.3278 11.1709 68.4978 11.4509 68.6378C11.9909 68.9178 12.2809 69.1178 12.2809 69.1178V69.1278Z" fill="#297DA9"/>
<path d="M18.7412 64.9469C18.7412 64.9469 18.5713 65.0369 18.2613 65.1869C17.9513 65.3269 17.5212 65.5369 16.9812 65.7469C16.4412 65.9369 15.8313 66.1869 15.1413 66.3569C14.8013 66.4469 14.4512 66.5369 14.1012 66.6169C13.7412 66.6869 13.3813 66.7469 13.0213 66.8069C12.6613 66.8669 12.3012 66.8969 11.9412 66.9169C11.5812 66.9369 11.2312 66.9469 10.9012 66.9369C10.2212 66.8969 9.60125 66.8369 9.06125 66.6769C8.52125 66.5169 8.09125 66.3069 7.78125 66.0469C7.47125 65.7869 7.30125 65.4569 7.28125 65.0769C9.04125 64.7069 10.5812 64.4769 11.9512 64.3769C12.6312 64.3169 13.2812 64.3069 13.8713 64.2969C14.1713 64.2969 14.4513 64.2969 14.7313 64.3169C15.0113 64.3269 15.2613 64.3369 15.5213 64.3569C16.5313 64.4369 17.3313 64.5669 17.8913 64.6969C18.4513 64.8269 18.7513 64.9469 18.7513 64.9469H18.7412Z" fill="#297DA9"/>
<path d="M24.1706 59.2175C24.1706 59.2175 24.0306 59.3375 23.7706 59.5475C23.5206 59.7575 23.1606 60.0575 22.7006 60.3675C22.2506 60.6875 21.7206 61.0575 21.1306 61.3875C20.5506 61.7375 19.9106 62.0575 19.2606 62.3375C18.9406 62.4875 18.6106 62.5975 18.2906 62.7075C17.9606 62.8175 17.6506 62.9275 17.3306 62.9975C16.6906 63.1375 16.1206 63.2475 15.5906 63.2375C15.0706 63.2375 14.6206 63.1575 14.2906 62.9975C13.9606 62.8375 13.7306 62.5775 13.6406 62.2375C15.1906 61.4275 16.5606 60.8075 17.8106 60.3675C19.0406 59.9075 20.1506 59.6275 21.0906 59.4375C21.5606 59.3475 21.9806 59.2775 22.3706 59.2475C22.7506 59.2075 23.0706 59.1775 23.3406 59.1775C23.8806 59.1575 24.1806 59.1975 24.1806 59.1975L24.1706 59.2175Z" fill="#297DA9"/>
<path d="M28.3209 52.2812C28.3209 52.2812 28.2109 52.4312 28.0209 52.6812C27.8309 52.9412 27.5409 53.2912 27.1809 53.7012C27.0009 53.9012 26.8209 54.1312 26.6009 54.3512C26.3909 54.5712 26.1609 54.7912 25.9209 55.0312C25.4609 55.5013 24.9209 55.9413 24.3909 56.3713C23.8409 56.7913 23.2909 57.1612 22.7509 57.4712C22.2009 57.7612 21.6809 58.0113 21.2009 58.1413C20.2309 58.4013 19.5109 58.3312 19.2109 57.7412C20.4709 56.5812 21.6109 55.6612 22.6809 54.9412C23.1909 54.5612 23.7109 54.2613 24.1809 53.9813C24.6509 53.7013 25.1009 53.4612 25.5209 53.2712C26.3409 52.8612 27.0509 52.6212 27.5409 52.4712C28.0309 52.3212 28.3109 52.2912 28.3109 52.2912L28.3209 52.2812Z" fill="#297DA9"/>
<path d="M30.9997 44.4766C30.9997 44.4766 30.9797 44.5166 30.9497 44.5966C30.9197 44.6666 30.8697 44.7866 30.7997 44.9266C30.6597 45.2066 30.4697 45.5966 30.2197 46.0666C29.9797 46.5366 29.6597 47.0466 29.3197 47.5866C28.9797 48.1266 28.5697 48.6766 28.1697 49.2066C27.7397 49.7166 27.3097 50.2166 26.8697 50.6366C26.4197 51.0466 25.9897 51.4066 25.5797 51.6566C24.7497 52.1466 24.0697 52.2666 23.6797 51.8066C24.6097 50.4166 25.4697 49.2766 26.3197 48.3366C26.7297 47.8666 27.1297 47.4466 27.5197 47.0666C27.8997 46.6866 28.2597 46.3566 28.6097 46.0766C29.2997 45.5066 29.8797 45.0966 30.3097 44.8466C30.5297 44.7166 30.6997 44.6266 30.8097 44.5666C30.9297 44.5066 30.9897 44.4866 30.9897 44.4866L30.9997 44.4766Z" fill="#297DA9"/>
<path d="M32.0747 36.2266C32.0747 36.2266 32.0347 36.3866 31.9747 36.6766C31.9047 36.9666 31.8147 37.3666 31.6647 37.8466C31.5147 38.3266 31.3447 38.8866 31.1347 39.4566C30.9047 40.0366 30.6747 40.6366 30.3947 41.2166C29.8347 42.3766 29.1547 43.4366 28.5147 44.1066C27.8547 44.7766 27.2547 45.0566 26.8047 44.7466C26.9447 44.3666 27.0847 44.0066 27.2347 43.6566C27.3847 43.3066 27.5147 42.9666 27.6647 42.6566C27.9647 42.0166 28.2347 41.4266 28.5347 40.8966C29.1047 39.8266 29.6947 38.9566 30.2047 38.2566C30.4647 37.9166 30.7147 37.6066 30.9447 37.3566C31.1647 37.0966 31.3647 36.8866 31.5347 36.7166C31.8747 36.3766 32.0947 36.2266 32.0947 36.2266H32.0747Z" fill="#297DA9"/>
<path d="M31.5225 27.9922C31.5225 27.9922 31.5225 28.1522 31.5125 28.4322C31.4925 28.7122 31.4725 29.1022 31.4325 29.5822C31.4025 30.0522 31.3325 30.6022 31.2425 31.1722C31.2025 31.4622 31.1525 31.7522 31.0925 32.0522C31.0325 32.3522 30.9625 32.6522 30.8925 32.9522C30.8225 33.2522 30.7425 33.5422 30.6625 33.8222C30.5725 34.1122 30.4725 34.3922 30.3725 34.6522C30.1725 35.1822 29.9725 35.6622 29.7325 36.0422C29.2625 36.8222 28.7825 37.2422 28.3125 37.0722C28.7425 34.0122 29.4625 31.8322 30.1725 30.3022C30.5025 29.5422 30.8425 28.9622 31.1025 28.5722C31.2325 28.3822 31.3325 28.2322 31.4025 28.1422C31.4725 28.0422 31.5125 28.0022 31.5125 28.0022L31.5225 27.9922Z" fill="#297DA9"/>
<path d="M29.3909 20.1406C29.3909 20.1406 29.4909 20.7206 29.6009 21.5906C29.6409 22.0306 29.6809 22.5406 29.7209 23.0806C29.7509 23.6206 29.7409 24.2006 29.7309 24.7706C29.6809 25.9206 29.5509 27.0506 29.2709 27.8706C29.1309 28.2806 28.9809 28.6106 28.8009 28.8406C28.6109 29.0706 28.4109 29.1806 28.1809 29.1706C28.1309 28.4506 28.1109 27.7706 28.1109 27.1406C28.1009 26.5106 28.1409 25.9206 28.1709 25.3706C28.2009 24.8306 28.2609 24.3206 28.3409 23.8506C28.4009 23.3806 28.4809 22.9506 28.5709 22.5706C28.7609 21.7906 28.9409 21.1906 29.1009 20.7806C29.2609 20.3706 29.3809 20.1506 29.3809 20.1506L29.3909 20.1406Z" fill="#297DA9"/>
<path d="M25.7895 13.1016C25.7895 13.1016 25.8395 13.2216 25.9195 13.4416C25.9995 13.6516 26.1195 13.9616 26.2295 14.3516C26.3495 14.7316 26.4895 15.1716 26.6095 15.6516C26.7295 16.1316 26.8395 16.6516 26.9395 17.1716C27.0195 17.6916 27.0895 18.2216 27.1195 18.7116C27.1595 19.2016 27.1395 19.6716 27.0995 20.0716C27.0295 20.8716 26.7895 21.4316 26.3695 21.5216C25.6395 18.9716 25.4495 16.9616 25.4795 15.4716C25.4995 14.7316 25.5695 14.1316 25.6395 13.7316C25.7095 13.3216 25.7695 13.1016 25.7695 13.1016H25.7895Z" fill="#297DA9"/>
<path d="M20.9598 7.22656C20.9598 7.22656 21.0198 7.32656 21.1398 7.49656C21.2498 7.67656 21.3998 7.92656 21.5798 8.23656C21.9398 8.84656 22.3598 9.70656 22.7298 10.5766C22.8998 11.0166 23.0498 11.4766 23.1798 11.9066C23.3098 12.3266 23.3798 12.7566 23.4198 13.1266C23.5098 13.8666 23.3998 14.4266 23.0498 14.6066C21.8998 12.5166 21.3598 10.7666 21.1198 9.41656C20.9998 8.75656 20.9598 8.20656 20.9498 7.81656C20.9398 7.43656 20.9498 7.22656 20.9498 7.22656H20.9598Z" fill="#297DA9"/>
<path d="M15.1641 2.78906C15.1641 2.78906 15.4641 3.07906 15.8941 3.53906C16.1141 3.75906 16.3541 4.03906 16.5941 4.34906C16.8341 4.65906 17.0941 4.97906 17.3341 5.33906C17.5641 5.69906 17.7841 6.05906 17.9741 6.40906C18.1641 6.75906 18.3141 7.11906 18.4141 7.42906C18.6241 8.06906 18.6441 8.57906 18.3641 8.83906C16.9441 7.26906 16.1341 5.85906 15.6941 4.69906C15.2341 3.58906 15.1641 2.78906 15.1641 2.78906Z" fill="#297DA9"/>
<path d="M8.67188 0.01C8.67188 0.01 8.99187 0.19 9.45187 0.48C9.90187 0.8 10.5019 1.22 11.0319 1.73C11.3019 1.98 11.5619 2.25 11.8019 2.5C12.0319 2.76 12.2319 3.04 12.3819 3.29C12.6819 3.8 12.8019 4.25 12.6119 4.54C12.2219 4.29 11.8719 4.04 11.5519 3.77C11.2319 3.52 10.9419 3.27 10.6919 3.01C10.4419 2.75 10.2119 2.5 10.0119 2.26C9.81188 2.02 9.64187 1.78 9.49187 1.56C9.19187 1.1 8.98188 0.74 8.86188 0.45C8.73188 0.17 8.68188 0 8.68188 0L8.67188 0.01Z" fill="#297DA9"/>
<path d="M8.48094 57.7422C8.48094 57.7422 8.37094 57.8322 8.17094 58.0122C7.97094 58.1722 7.68094 58.3922 7.34094 58.6922C6.99094 58.9722 6.58094 59.2822 6.12094 59.6422C5.66094 59.9722 5.17094 60.3522 4.66094 60.7022C4.15094 61.0822 3.63094 61.4222 3.13094 61.8022C2.63094 62.1622 2.16094 62.5222 1.75094 62.8922C0.940944 63.5922 0.380942 64.3422 0.510942 65.1122C2.34094 64.9622 3.83094 64.3122 4.95094 63.5322C5.23094 63.3322 5.49094 63.1322 5.73094 62.9222C5.97094 62.7022 6.19094 62.4822 6.39094 62.2622C6.79094 61.8322 7.11094 61.3522 7.37094 60.9222C7.63094 60.5022 7.82094 60.0622 7.97094 59.6822C8.12094 59.3022 8.22094 58.9622 8.30094 58.6822C8.44094 58.1022 8.47094 57.7522 8.47094 57.7522L8.48094 57.7422Z" fill="#297DA9"/>
<path d="M13.0487 55.2578C13.0487 55.2578 12.6987 55.7078 12.1587 56.4178C11.8787 56.7478 11.5687 57.1878 11.1987 57.6078C11.0187 57.8278 10.8287 58.0478 10.6387 58.2878C10.4387 58.5078 10.2387 58.7378 10.0387 58.9778C9.83867 59.2278 9.63867 59.4478 9.42867 59.6878C9.22867 59.9278 9.02867 60.1678 8.82867 60.4078C8.42867 60.8578 8.06867 61.3378 7.76867 61.7678C7.45867 62.2078 7.21867 62.6278 7.08867 63.0378C6.95867 63.4378 6.92867 63.8078 7.06867 64.1578C8.72867 63.5278 9.96867 62.5378 10.8587 61.5278C11.2987 61.0078 11.6687 60.4978 11.9487 59.9678C12.0887 59.7078 12.2187 59.4578 12.3287 59.2178C12.4387 58.9678 12.5287 58.7178 12.6087 58.4878C12.9287 57.5478 13.0287 56.7278 13.0587 56.1678C13.0887 55.5978 13.0487 55.2678 13.0487 55.2678V55.2578Z" fill="#297DA9"/>
<path d="M17.0617 51.5859C17.0617 51.5859 17.0018 51.7159 16.8918 51.9359C16.7818 52.1659 16.6418 52.5059 16.4418 52.8859C16.2518 53.2759 16.0318 53.7459 15.7718 54.2359C15.5218 54.7459 15.2418 55.2659 14.9618 55.8159C14.8318 56.0959 14.6717 56.3559 14.5317 56.6259C14.3917 56.8959 14.2518 57.1659 14.1218 57.4459C13.8418 57.9659 13.6117 58.5159 13.4017 58.9959C13.2017 59.4759 13.0618 59.9359 13.0218 60.3459C12.9818 60.7559 13.0217 61.0959 13.2217 61.3759C14.6217 60.3559 15.5818 59.1159 16.2118 57.9559C16.8318 56.7659 17.1318 55.6459 17.2518 54.6959C17.3118 54.2159 17.3218 53.7859 17.3218 53.4059C17.3218 53.0259 17.2717 52.6959 17.2417 52.4259C17.1617 51.8859 17.0617 51.5959 17.0617 51.5959V51.5859Z" fill="#297DA9"/>
<path d="M20.2834 46.9319C20.2834 46.9319 20.2534 47.0719 20.1934 47.3119C20.1434 47.5619 20.0534 47.8919 19.9534 48.3019C19.9034 48.5119 19.8534 48.7419 19.7934 48.9719C19.7334 49.2019 19.6634 49.4619 19.5934 49.7219C19.4634 50.2619 19.2834 50.8019 19.1434 51.3819C18.9734 51.9519 18.8134 52.5419 18.6734 53.1119C18.5234 53.6619 18.4034 54.2319 18.3134 54.7219C18.1334 55.7119 18.1634 56.5619 18.6234 56.9619C19.7034 55.6519 20.3434 54.2619 20.7034 53.0319C20.8634 52.4019 20.9834 51.8219 21.0334 51.2719C21.0734 50.7119 21.0834 50.2119 21.0534 49.7619C20.9734 48.8419 20.8034 48.1519 20.6234 47.6619C20.4434 47.1819 20.3034 46.9219 20.3034 46.9219L20.2834 46.9319Z" fill="#297DA9"/>
<path d="M22.5306 41.5178C22.5306 41.5178 22.5306 41.5578 22.5306 41.6178C22.5306 41.6778 22.5306 41.7778 22.5306 41.8878C22.5206 42.1278 22.5006 42.4578 22.4906 42.8678C22.4806 43.2778 22.4306 43.7478 22.4206 44.2778C22.3906 44.7978 22.3406 45.3478 22.3206 45.9278C22.2706 46.4878 22.2406 47.0778 22.2206 47.6378C22.1806 48.1878 22.1806 48.7278 22.2006 49.2078C22.2306 50.1678 22.4206 50.9378 22.9206 51.1778C23.6506 49.6978 23.9706 48.2578 24.0606 47.0378C24.1006 46.4178 24.0706 45.8478 24.0306 45.3378C23.9706 44.8178 23.8706 44.3478 23.7606 43.9378C23.5306 43.1178 23.2106 42.5078 22.9806 42.1078C22.8606 41.9078 22.7506 41.7578 22.6806 41.6578C22.6006 41.5578 22.5606 41.5078 22.5606 41.5078L22.5306 41.5178Z" fill="#297DA9"/>
<path d="M23.6719 35.5959C23.6719 35.5959 23.7519 36.0859 23.8719 36.8559C23.9319 37.2359 24.0019 37.6859 24.0719 38.1759C24.1219 38.6559 24.2219 39.1959 24.2819 39.7159C24.4319 40.7859 24.5819 41.8859 24.8119 42.7559C25.0219 43.6259 25.3519 44.2759 25.8619 44.3659C25.9519 43.9759 26.0219 43.6059 26.0819 43.2359C26.1419 42.8759 26.1619 42.5159 26.1819 42.1759C26.2319 41.4959 26.1819 40.8559 26.1019 40.2859C25.9319 39.1359 25.6119 38.2259 25.2319 37.5259C25.0419 37.1759 24.8619 36.8859 24.6819 36.6359C24.4919 36.3859 24.3219 36.1859 24.1719 36.0359C23.8719 35.7259 23.6719 35.5859 23.6719 35.5859V35.5959Z" fill="#297DA9"/>
<path d="M23.6328 29.4609C23.6328 29.4609 23.6828 29.5709 23.7528 29.7609C23.8228 29.9509 23.9228 30.2309 24.0428 30.5709C24.1828 30.9109 24.3128 31.3009 24.4628 31.7309C24.5428 31.9509 24.6228 32.1709 24.7128 32.4009C24.7928 32.6309 24.8728 32.8609 24.9528 33.1009C25.1228 33.5609 25.2928 34.0309 25.4728 34.5009C25.6528 34.9509 25.8428 35.3809 26.0228 35.7509C26.3928 36.4909 26.8128 36.9909 27.2928 36.9409C27.2928 36.1909 27.2728 35.5009 27.1528 34.8709C27.1028 34.5509 27.0428 34.2509 26.9728 33.9709C26.9028 33.6909 26.8128 33.4209 26.7228 33.1709C26.3728 32.1609 25.8728 31.4109 25.4328 30.8609C24.9528 30.3109 24.5128 29.9709 24.1928 29.7609C24.0328 29.6509 23.8928 29.5809 23.8028 29.5409C23.7128 29.5009 23.6528 29.4809 23.6528 29.4809L23.6328 29.4609Z" fill="#297DA9"/>
<path d="M22.3906 23.4631C22.3906 23.4631 22.6106 23.8331 22.9806 24.3731C23.1506 24.6531 23.3506 24.9831 23.5806 25.3331C23.8106 25.6831 24.0306 26.0731 24.2806 26.4531C24.7606 27.2231 25.2706 28.0131 25.7406 28.5831C25.9806 28.8731 26.2206 29.0931 26.4606 29.2331C26.6906 29.3731 26.9106 29.4231 27.1206 29.3331C26.9906 28.6531 26.8006 28.0431 26.6006 27.4931C26.3706 26.9531 26.1406 26.4731 25.8806 26.0631C25.6106 25.6531 25.3406 25.3031 25.0806 25.0131C24.8006 24.7231 24.5206 24.4831 24.2606 24.2931C23.7506 23.9031 23.2606 23.7031 22.9306 23.5931C22.5906 23.4731 22.3906 23.4531 22.3906 23.4531V23.4631Z" fill="#297DA9"/>
<path d="M19.9844 17.8784C19.9844 17.8784 21.0444 18.9284 22.2544 20.1384C22.5444 20.4284 22.8344 20.7284 23.1344 20.9884C23.4344 21.2484 23.7044 21.5084 23.9844 21.6984C24.5344 22.0884 25.0244 22.2784 25.3744 22.0084C25.1344 21.4284 24.8344 20.9284 24.5544 20.4884C24.2544 20.0584 23.9344 19.6984 23.6344 19.3784C22.9944 18.7784 22.3944 18.3884 21.8344 18.1784C21.2944 17.9584 20.8344 17.8784 20.5044 17.8584C20.1744 17.8384 19.9844 17.8684 19.9844 17.8684V17.8784Z" fill="#297DA9"/>
<path d="M16.5078 13.0226C16.5078 13.0226 16.5878 13.0626 16.7178 13.1426C16.8478 13.2226 17.0378 13.3426 17.2678 13.4826C17.7378 13.7526 18.3278 14.1526 18.9778 14.5126C19.2878 14.7026 19.6078 14.8926 19.9278 15.0526C20.2478 15.2126 20.5378 15.3726 20.8278 15.4726C21.1078 15.5826 21.3678 15.6426 21.5978 15.6326C21.8178 15.6326 22.0078 15.5626 22.1378 15.3926C20.7878 13.5626 19.2778 12.9826 18.2378 12.8426C17.7078 12.7826 17.2778 12.8226 16.9878 12.8726C16.6878 12.9326 16.5178 13.0126 16.5178 13.0126L16.5078 13.0226Z" fill="#297DA9"/>
<path d="M12.1506 9.16171C12.1506 9.16171 12.4506 9.26171 12.9106 9.40171C13.1406 9.46171 13.4106 9.55171 13.7006 9.64171C13.9906 9.73171 14.3106 9.81171 14.6206 9.91171C14.9306 10.0117 15.2606 10.0917 15.5706 10.1617C15.8806 10.2217 16.1806 10.3017 16.4506 10.3217C16.9906 10.3617 17.4306 10.2717 17.6006 9.92171C16.0606 8.64171 14.6006 8.49171 13.6506 8.61171C12.6706 8.76171 12.1406 9.17171 12.1406 9.17171L12.1506 9.16171Z" fill="#297DA9"/>
<path d="M7.10156 6.51938C7.10156 6.51938 7.39156 6.53938 7.82156 6.53938C8.04156 6.53938 8.29156 6.55938 8.57156 6.56938C8.84156 6.56938 9.14156 6.56938 9.44156 6.57938C9.74156 6.57938 10.0416 6.57938 10.3316 6.55938C10.6216 6.53938 10.8916 6.52937 11.1416 6.47937C11.6316 6.37937 11.9916 6.18938 12.0716 5.83938C11.6716 5.66938 11.2916 5.53937 10.9316 5.45937C10.5716 5.38937 10.2316 5.35938 9.91156 5.35938C9.60156 5.35938 9.31156 5.38937 9.05156 5.45937C8.79156 5.51937 8.55156 5.59938 8.34156 5.67938C7.93156 5.83938 7.61156 6.07937 7.41156 6.24937C7.21156 6.41937 7.10156 6.53938 7.10156 6.53938V6.51938Z" fill="#297DA9"/>
<path d="M0.5 2.13187C0.5 2.13187 0.909998 2.07188 1.56 1.99188C1.89 1.94188 2.27 1.94187 2.71 1.92188C2.92 1.92188 3.15 1.92188 3.38 1.92188C3.61 1.93187 3.85 1.95188 4.09 1.97188C4.33 1.99188 4.58 2.01188 4.82 2.04188C5.07 2.08187 5.31 2.12188 5.56 2.17188C6.05 2.25188 6.53 2.40187 6.97 2.55187C7.42 2.69187 7.82 2.90187 8.17 3.10187C8.35 3.20187 8.5 3.31188 8.65 3.42188C8.79 3.53188 8.91 3.66188 9.01 3.78188C8.7 3.82187 8.34 3.82187 7.95 3.78188C7.56 3.73188 7.14 3.64188 6.69 3.56187C6.47 3.52188 6.24 3.46188 6.01 3.40188C5.78 3.35188 5.55 3.29188 5.31 3.24188C5.08 3.18188 4.84 3.12188 4.61 3.05187C4.38 3.00188 4.14 2.94188 3.92 2.89188C3.69 2.83188 3.47 2.77188 3.25 2.72188C3.03 2.68188 2.82 2.63187 2.62 2.58187C2.22 2.49187 1.85 2.39187 1.53 2.34187C0.899999 2.22187 0.5 2.12187 0.5 2.12187V2.13187Z" fill="#297DA9"/>
</svg>
